<svg width="18" height="18" viewBox="0 0 18 18" fill="none" xmlns="http://www.w3.org/2000/svg">
<path fill-rule="evenodd" clip-rule="evenodd" d="M14.25 3H13.5V1.5H12V3H6V1.5H4.5V3H3.75C2.9175 3 2.25 3.675 2.25 4.5V15C2.25 15.825 2.9175 16.5 3.75 16.5H14.25C15.075 16.5 15.75 15.825 15.75 15V4.5C15.75 3.675 15.075 3 14.25 3ZM14.25 15H3.75V6.75H14.25V15ZM4.875 9.75C4.875 8.715 5.715 7.875 6.75 7.875C7.785 7.875 8.625 8.715 8.625 9.75C8.625 10.785 7.785 11.625 6.75 11.625C5.715 11.625 4.875 10.785 4.875 9.75Z" fill="#000"/>
</svg>
