<svg width="20" height="20" viewBox="0 0 20 20" fill="none" xmlns="http://www.w3.org/2000/svg">
<path fill-rule="evenodd" clip-rule="evenodd" d="M10.0001 1.66667C5.39175 1.66667 1.66675 5.39167 1.66675 10C1.66675 14.6083 5.39175 18.3333 10.0001 18.3333C14.6084 18.3333 18.3334 14.6083 18.3334 10C18.3334 5.39167 14.6084 1.66667 10.0001 1.66667ZM10.0001 16.6667C6.32508 16.6667 3.33341 13.675 3.33341 10C3.33341 6.32501 6.32508 3.33334 10.0001 3.33334C13.6751 3.33334 16.6667 6.32501 16.6667 10C16.6667 13.675 13.6751 16.6667 10.0001 16.6667ZM10.0001 8.82501L12.9917 5.83334L14.1667 7.00834L11.1751 10L14.1667 12.9917L12.9917 14.1667L10.0001 11.175L7.00841 14.1667L5.83342 12.9917L8.82508 10L5.83342 7.00834L7.00841 5.83334L10.0001 8.82501Z" fill="#000"/>
</svg>
