<svg width="23" height="24" viewBox="0 0 23 24" fill="none" xmlns="http://www.w3.org/2000/svg">
<path d="M14.5666 11.9998C14.5666 13.6935 13.1936 15.0665 11.4999 15.0665C9.80627 15.0665 8.43328 13.6935 8.43328 11.9998C8.43328 10.3062 9.80627 8.93317 11.4999 8.93317C13.1936 8.93317 14.5666 10.3062 14.5666 11.9998Z" fill="#000"/>
<path fill-rule="evenodd" clip-rule="evenodd" d="M6.87121 4.33317L8.62496 2.4165H14.375L16.1287 4.33317H19.1666C20.2208 4.33317 21.0833 5.19567 21.0833 6.24984V17.7498C21.0833 18.804 20.2208 19.6665 19.1666 19.6665H3.83329C2.77913 19.6665 1.91663 18.804 1.91663 17.7498V6.24984C1.91663 5.19567 2.77913 4.33317 3.83329 4.33317H6.87121ZM6.70829 11.9998C6.70829 14.6448 8.85496 16.7915 11.5 16.7915C14.145 16.7915 16.2916 14.6448 16.2916 11.9998C16.2916 9.35484 14.145 7.20817 11.5 7.20817C8.85496 7.20817 6.70829 9.35484 6.70829 11.9998Z" fill="#000"/>
</svg>
