<svg width="24" height="25" viewBox="0 0 24 25" fill="none" xmlns="http://www.w3.org/2000/svg">
<path d="M16.9167 15.8272L16.6429 16.176L16.9564 16.4896L21.2929 20.826L20.59 21.5289L16.2536 17.1925L15.94 16.8789L15.5912 17.1527C14.3264 18.1459 12.7344 18.736 11 18.736C7.93052 18.736 5.2843 16.8825 4.12596 14.236H5.23886C6.32303 16.3089 8.49167 17.736 11 17.736C14.5861 17.736 17.5 14.8221 17.5 11.236C17.5 7.64987 14.5861 4.73601 11 4.73601C7.92755 4.73601 5.36192 6.87746 4.68179 9.73601H3.65758C4.3497 6.30964 7.3713 3.73601 11 3.73601C15.1439 3.73601 18.5 7.09215 18.5 11.236C18.5 12.9704 17.9099 14.5624 16.9167 15.8272ZM14.5 12.736H15V13.236H13.8333L13.0115 11.2637L12.4979 10.0311L12.0757 11.2979L10.9296 14.736H10.0481L8.9173 9.81405L8.5042 8.01602L7.95285 9.77658L7.18264 12.236H1.5V11.736H6.45H6.8176L6.92724 11.3851L8.0676 7.73601H8.9523L10.1028 12.7185L10.5032 14.4525L11.0645 12.7637L12.0707 9.73601H12.9167L14.0385 12.4283L14.1667 12.736H14.5Z" fill="#000" stroke="#000"/>
</svg>
