<svg xmlns="http://www.w3.org/2000/svg" height="24" viewBox="0 96 960 960" width="24">
<path fill="#000" d="M480 736q75 0 127.5-52.5T660 556q0-75-52.5-127.5T480 376q-75 0-127.5 52.5T300 556q0 75 52.5 127.5T480 736Zm.042-77.022q-42.89 0-72.955-30.023-30.065-30.023-30.065-72.913t30.023-72.955q30.023-30.065 72.913-30.065t72.955 30.023q30.065 30.023 30.065 72.913t-30.023 72.955q-30.023 30.065-72.913 30.065ZM480 863.413q-148.87 0-270.663-83.891Q87.543 695.63 32.587 556q54.956-139.63 176.75-223.522Q331.13 248.587 480 248.587t270.663 83.891Q872.457 416.37 927.413 556q-54.956 139.63-176.75 223.522Q628.87 863.413 480 863.413Z"/>
</svg>