<svg xmlns="http://www.w3.org/2000/svg" height="24" viewBox="0 96 960 960" width="24">
<path fill="#000" d="M789.13 1002.87 625.435 840.935q-34.522 11.239-70.5 16.859-35.978 5.619-74.935 5.619-152.674 0-272.707-84.935Q87.261 693.544 32.587 556q20.76-52.522 53-98.859 32.239-46.337 72.761-83.293L49.304 263.283l58.631-58.631 739.587 739.826-58.392 58.392ZM480 736q9.804 0 18.348-.88 8.543-.881 18.348-3.642L304.043 519.304q-2.521 9.805-3.282 18.468Q300 546.435 300 556q0 75 52.5 127.5T480 736Zm299.652 20.63L646.196 623.935q6.521-15.805 10.163-32.946Q660 573.848 660 556q0-75-52.5-127.5T480 376q-18.326 0-34.989 3.641-16.663 3.642-32.946 10.924L304.087 282.587q41-17 84.956-25.5 43.957-8.5 90.957-8.5 152.435 0 272.467 84.695Q872.5 417.978 927.413 556q-23 59.478-60.978 110.935-37.978 51.456-86.783 89.695ZM577.674 555.413l-98-98q22.978-4.043 42.054 3.544t32.968 22.478q13.891 14.891 20.076 34.087 6.184 19.195 2.902 37.891Z"/>
</svg>