<svg width="24" height="24" viewBox="0 0 24 24" fill="none" xmlns="http://www.w3.org/2000/svg">
<path d="M17 4H15V2H5V4H3C1.9 4 1 4.9 1 6V7C1 9.55 2.92 11.63 5.39 11.94C6.02 13.44 7.37 14.57 9 14.9V18H5V20H12.22C11.21 19 10.58 17.61 10.58 16.08C10.58 13.05 13.05 10.58 16.08 10.58C16.5 10.58 16.91 10.63 17.31 10.72C18.35 9.81 19 8.49 19 7V6C19 4.9 18.1 4 17 4ZM5 9.82C3.84 9.4 3 8.3 3 7V6H5V9.82ZM17 7C17 8.3 16.16 9.4 15 9.82V6H17V7ZM11.81 14.65C13.07 14.17 14.09 13.18 14.61 11.94C15.07 11.88 15.52 11.76 15.93 11.59C14.01 11.65 12.39 12.91 11.81 14.65Z" fill="#000"/>
<path d="M19.88 18.47C20.32 17.77 20.58 16.96 20.58 16.08C20.58 13.59 18.57 11.58 16.08 11.58C16.03 11.58 15.99 11.58 15.94 11.59H15.93C14.01 11.65 12.39 12.91 11.81 14.65C11.66 15.1 11.58 15.58 11.58 16.08C11.58 16.77 11.73 17.42 12.01 18C12.41 18.85 13.06 19.55 13.87 20C14.52 20.37 15.27 20.58 16.07 20.58C16.95 20.58 17.77 20.32 18.46 19.88L21.58 23L23 21.58L19.88 18.47ZM16.08 18.58C15.69 18.58 15.33 18.49 15 18.33C14.81 18.24 14.64 18.13 14.48 18C13.93 17.54 13.58 16.85 13.58 16.08C13.58 14.7 14.7 13.58 16.08 13.58C17.46 13.58 18.58 14.7 18.58 16.08C18.58 17.46 17.46 18.58 16.08 18.58Z" fill="#000"/>
</svg>
