<svg width="24" height="25" viewBox="0 0 24 25" fill="none" xmlns="http://www.w3.org/2000/svg">
<path d="M9.5 9.23602V8.77672L9.04235 8.73782C7.23335 8.58405 5.31513 8.29836 3.60545 7.87578L3.86309 6.84521C6.41246 7.46918 9.31458 7.73602 12 7.73602C14.6854 7.73602 17.5875 7.46918 20.1369 6.84521L20.3946 7.87578C18.6849 8.29836 16.7667 8.58405 14.9577 8.73782L14.5 8.77672V9.23602V21.736H13.5V16.236V15.736H13H11H10.5V16.236V21.736H9.5V9.23602ZM13.5 4.23602C13.5 5.05988 12.8239 5.73602 12 5.73602C11.1761 5.73602 10.5 5.05988 10.5 4.23602C10.5 3.41217 11.1761 2.73602 12 2.73602C12.8239 2.73602 13.5 3.41217 13.5 4.23602Z" fill="#000" stroke="#000"/>
</svg>
