<svg width="24" height="25" viewBox="0 0 24 25" fill="none" xmlns="http://www.w3.org/2000/svg">
<path d="M11.9993 2.98604C6.89927 2.98604 2.74927 7.13604 2.74927 12.236C2.74927 17.336 6.89927 21.486 11.9993 21.486C17.0993 21.486 21.2493 17.336 21.2493 12.236C21.2493 7.13604 17.0993 2.98604 11.9993 2.98604ZM11.9993 3.48604C15.5893 3.48604 18.6793 5.66604 20.0293 8.76604C19.3693 9.39604 18.6493 10.046 17.9293 10.676C18.3093 9.96604 18.7093 9.27604 19.0493 8.74604C19.2293 8.46604 19.2593 8.12604 19.1293 7.81604C18.9993 7.50604 18.7393 7.28604 18.4193 7.21604C17.9093 7.09604 17.4293 7.30604 16.0893 8.21604C15.2893 8.75604 14.2393 9.53604 13.0493 10.456C12.3593 10.986 11.6693 11.526 10.9993 12.076C11.1593 11.866 11.3093 11.666 11.4693 11.456C12.5193 10.086 13.6093 8.66604 14.2993 7.15604C14.4893 6.74604 14.3793 6.25604 14.0293 5.96604C13.6893 5.67604 13.1893 5.64604 12.8093 5.89604C9.95927 7.79604 6.42927 10.426 3.29927 13.086C3.26927 12.816 3.25927 12.536 3.25927 12.256C3.24927 7.41604 7.17927 3.48604 11.9993 3.48604ZM11.9993 20.986C8.24927 20.986 5.04927 18.616 3.80927 15.286C5.57927 13.736 7.52927 12.176 9.43927 10.746C8.13927 12.446 6.88927 14.216 6.48927 16.156C6.39927 16.586 6.59927 17.026 6.97927 17.246C7.36927 17.466 7.84927 17.406 8.16927 17.106C9.94927 15.446 13.0293 12.976 15.3693 11.226C14.8393 12.306 14.1193 13.776 14.2993 14.546C14.3693 14.846 14.5493 15.096 14.7993 15.256C15.1893 15.496 15.6993 15.436 16.0293 15.116C16.8593 14.306 17.8093 13.486 18.7193 12.686C19.3693 12.116 20.0093 11.536 20.6393 10.956C20.6993 11.376 20.7393 11.806 20.7393 12.236C20.7393 17.066 16.8193 20.986 11.9893 20.986H11.9993Z" fill="#000"/>
<path fill-rule="evenodd" clip-rule="evenodd" d="M11.9998 20.736C16.6942 20.736 20.4998 16.9304 20.4998 12.236C20.4998 7.5416 16.6942 3.73602 11.9998 3.73602C7.30534 3.73602 3.49976 7.5416 3.49976 12.236C3.49976 16.9304 7.30534 20.736 11.9998 20.736ZM11.9998 22.236C17.5226 22.236 21.9998 17.7589 21.9998 12.236C21.9998 6.71318 17.5226 2.23602 11.9998 2.23602C6.47691 2.23602 1.99976 6.71318 1.99976 12.236C1.99976 17.7589 6.47691 22.236 11.9998 22.236Z" fill="#000"/>
</svg>
