<svg width="24" height="25" viewBox="0 0 24 25" fill="none" xmlns="http://www.w3.org/2000/svg">
<path fill-rule="evenodd" clip-rule="evenodd" d="M12 2.23602C6.48 2.23602 2 6.71602 2 12.236C2 17.756 6.48 22.236 12 22.236C17.52 22.236 22 17.756 22 12.236C22 6.71602 17.52 2.23602 12 2.23602ZM18.36 17.066C16.93 15.326 13.46 14.736 12 14.736C10.54 14.736 7.07 15.326 5.64 17.066C4.62 15.726 4 14.056 4 12.236C4 7.82602 7.59 4.23602 12 4.23602C16.41 4.23602 20 7.82602 20 12.236C20 14.056 19.38 15.726 18.36 17.066ZM8.5 9.73602C8.5 7.79602 10.06 6.23602 12 6.23602C13.94 6.23602 15.5 7.79602 15.5 9.73602C15.5 11.676 13.94 13.236 12 13.236C10.06 13.236 8.5 11.676 8.5 9.73602Z" fill="#000"/>
</svg>
