<svg height="24" viewBox="0 96 960 960" width="24">
<path fill="#000" d="M478.771 816q21.99 0 37.327-15.337t15.337-37.327q0-21.99-15.337-37.174-15.337-15.184-37.327-15.184-21.991 0-37.174 15.184-15.184 15.184-15.184 37.174 0 21.99 15.184 37.327Q456.78 816 478.771 816Zm-38.358-154h78.783q0-34.565 7.761-52.163 7.76-17.598 34.478-43.837 32.608-32.609 47.228-56.348 14.62-23.739 14.62-54.935 0-54.434-36.598-86.815-36.598-32.38-96.642-32.38-56.195 0-95.173 28.793-38.979 28.794-54.457 77.033l71.022 27.674q7.239-25.565 27.043-42.783 19.805-17.217 47.326-17.217 25.087 0 41.533 13.782 16.445 13.783 16.445 35.87 0 16.283-10.88 34.685t-33.772 38.532q-34.195 30.435-46.456 56.457Q440.413 614.37 440.413 662ZM202.87 944.131q-37.783 0-64.392-26.609-26.609-26.609-26.609-64.392V298.87q0-37.783 26.609-64.392 26.609-26.609 64.392-26.609h554.26q37.783 0 64.392 26.609 26.609 26.609 26.609 64.392v554.26q0 37.783-26.609 64.392-26.609 26.609-64.392 26.609H202.87Zm0-91.001h554.26V298.87H202.87v554.26Zm0-554.26v554.26-554.26Z"/>
</svg>