<svg width="24" height="24" viewBox="0 0 24 24" fill="none" xmlns="http://www.w3.org/2000/svg">
<path d="M13.97 17.03C13.39 16.69 12.73 16.5 12 16.5C11.27 16.5 10.61 16.69 10.02 17.02C9.51454 16.4539 9.50984 16.4473 9.50355 16.4385C9.49739 16.4298 9.4897 16.419 9.01 15.88C9.87 15.33 10.89 15 12 15C13.11 15 14.13 15.33 14.98 15.89C14.83 16.05 14.09 16.89 13.97 17.03Z" fill="#000"/>
<path d="M8.5 11C9.32843 11 10 10.3284 10 9.5C10 8.67157 9.32843 8 8.5 8C7.67157 8 7 8.67157 7 9.5C7 10.3284 7.67157 11 8.5 11Z" fill="#000"/>
<path d="M15.5 11C16.3284 11 17 10.3284 17 9.5C17 8.67157 16.3284 8 15.5 8C14.6716 8 14 8.67157 14 9.5C14 10.3284 14.6716 11 15.5 11Z" fill="#000"/>
<path fill-rule="evenodd" clip-rule="evenodd" d="M2 12C2 6.48 6.47 2 11.99 2C17.52 2 22 6.48 22 12C22 17.52 17.52 22 11.99 22C6.47 22 2 17.52 2 12ZM4 12C4 16.42 7.58 20 12 20C16.42 20 20 16.42 20 12C20 7.58 16.42 4 12 4C7.58 4 4 7.58 4 12Z" fill="#000"/>
</svg>
