<svg width="24" height="18" viewBox="0 0 23 18" xmlns="http://www.w3.org/2000/svg" >
        <path d="M 19.460938 1.507812 C 17.953125 0.792969 16.363281 0.285156 14.730469 0 C 14.507812 0.414062 14.304688 0.839844 14.125 1.277344 C 12.382812 1.003906 10.613281 1.003906 8.871094 1.277344 C 8.691406 0.839844 8.488281 0.414062 8.265625 0 C 6.628906 0.289062 5.039062 0.796875 3.527344 1.511719 C 0.535156 6.097656 -0.277344 10.574219 0.128906 14.984375 C 1.882812 16.324219 3.84375 17.34375 5.933594 18 C 6.402344 17.34375 6.816406 16.652344 7.175781 15.925781 C 6.496094 15.664062 5.839844 15.339844 5.21875 14.957031 C 5.382812 14.832031 5.542969 14.707031 5.699219 14.582031 C 9.371094 16.371094 13.628906 16.371094 17.300781 14.582031 C 17.460938 14.714844 17.621094 14.84375 17.78125 14.957031 C 17.15625 15.339844 16.5 15.664062 15.820312 15.925781 C 16.179688 16.652344 16.59375 17.347656 17.0625 18 C 19.152344 17.347656 21.117188 16.328125 22.871094 14.984375 C 23.347656 9.871094 22.058594 5.4375 19.460938 1.507812 Z M 7.6875 12.269531 C 6.558594 12.269531 5.625 11.207031 5.625 9.898438 C 5.625 8.59375 6.527344 7.519531 7.6875 7.519531 C 8.847656 7.519531 9.773438 8.59375 9.753906 9.898438 C 9.734375 11.207031 8.84375 12.269531 7.6875 12.269531 Z M 15.3125 12.269531 C 14.175781 12.269531 13.246094 11.207031 13.246094 9.898438 C 13.246094 8.59375 14.148438 7.519531 15.3125 7.519531 C 16.472656 7.519531 17.394531 8.59375 17.371094 9.898438 C 17.351562 11.207031 16.464844 12.269531 15.3125 12.269531 Z M 15.3125 12.269531 " fill="#000"/>
</svg>
