<svg width="24" height="24" viewBox="0 0 24 24" fill="none" xmlns="http://www.w3.org/2000/svg">
<path d="M7.32258 12.652H9.5149V21.6774C9.5149 21.8556 9.65929 22 9.83748 22H13.5546C13.7328 22 13.8772 21.8556 13.8772 21.6774V12.6945H16.3975C16.5614 12.6945 16.6992 12.5715 16.7179 12.4088L17.1007 9.08606C17.1112 8.99465 17.0823 8.9031 17.0211 8.83452C16.9599 8.76587 16.8723 8.72658 16.7803 8.72658H13.8774V6.64374C13.8774 6.01587 14.2154 5.69748 14.8823 5.69748C14.9773 5.69748 16.7803 5.69748 16.7803 5.69748C16.9585 5.69748 17.1029 5.55303 17.1029 5.3749V2.32497C17.1029 2.14677 16.9585 2.00239 16.7803 2.00239H14.1645C14.1461 2.00148 14.1051 2 14.0447 2C13.5908 2 12.0132 2.0891 10.767 3.23555C9.38626 4.506 9.57819 6.02716 9.62406 6.2909V8.72652H7.32258C7.14439 8.72652 7 8.8709 7 9.0491V12.3294C7 12.5075 7.14439 12.652 7.32258 12.652Z" fill="#000"/>
</svg>
