<svg width="24" height="24" viewBox="0 0 24 24" fill="none" xmlns="http://www.w3.org/2000/svg">
<path d="M8.33393 12C8.33393 9.97504 9.97504 8.33304 12 8.33304C14.025 8.33304 15.667 9.97504 15.667 12C15.667 14.025 14.025 15.667 12 15.667C9.97504 15.667 8.33393 14.025 8.33393 12ZM6.35161 12C6.35161 15.1196 8.88037 17.6484 12 17.6484C15.1196 17.6484 17.6484 15.1196 17.6484 12C17.6484 8.88037 15.1196 6.35162 12 6.35162C8.88037 6.35162 6.35161 8.88037 6.35161 12ZM16.5519 6.12771C16.5519 6.8563 17.1428 7.44806 17.8723 7.44806C18.6009 7.44806 19.1926 6.8563 19.1926 6.12771C19.1926 5.39911 18.6018 4.80824 17.8723 4.80824C17.1428 4.80824 16.5519 5.39911 16.5519 6.12771ZM7.55557 20.9537C6.48312 20.9048 5.90024 20.7263 5.51284 20.5752C4.99927 20.3753 4.6332 20.1372 4.24758 19.7524C3.86284 19.3677 3.62383 19.0016 3.4248 18.488C3.27375 18.1006 3.09515 17.5178 3.04628 16.4453C2.99297 15.2858 2.98231 14.9375 2.98231 12C2.98231 9.06252 2.99386 8.71511 3.04628 7.55469C3.09515 6.48223 3.27464 5.90024 3.4248 5.51195C3.62472 4.99838 3.86284 4.63231 4.24758 4.24669C4.63231 3.86195 4.99838 3.62294 5.51284 3.42391C5.90024 3.27286 6.48312 3.09426 7.55557 3.0454C8.7151 2.99208 9.06341 2.98142 12 2.98142C14.9375 2.98142 15.2849 2.99297 16.4453 3.0454C17.5178 3.09426 18.0998 3.27375 18.488 3.42391C19.0016 3.62294 19.3677 3.86195 19.7533 4.24669C20.138 4.63142 20.3762 4.99838 20.5761 5.51195C20.7271 5.89935 20.9057 6.48223 20.9546 7.55469C21.0079 8.71511 21.0186 9.06252 21.0186 12C21.0186 14.9366 21.0079 15.2849 20.9546 16.4453C20.9057 17.5178 20.7262 18.1006 20.5761 18.488C20.3762 19.0016 20.138 19.3677 19.7533 19.7524C19.3686 20.1372 19.0016 20.3753 18.488 20.5752C18.1006 20.7263 17.5178 20.9048 16.4453 20.9537C15.2858 21.007 14.9375 21.0177 12 21.0177C9.06341 21.0177 8.7151 21.007 7.55557 20.9537ZM7.46494 1.06664C6.29386 1.11995 5.49418 1.30565 4.79491 1.57754C4.07165 1.85832 3.45856 2.23506 2.84636 2.84637C2.23506 3.45767 1.85832 4.07076 1.57754 4.79491C1.30565 5.49418 1.11995 6.29386 1.06664 7.46494C1.01244 8.6378 1 9.01276 1 12C1 14.9872 1.01244 15.3622 1.06664 16.5351C1.11995 17.7061 1.30565 18.5058 1.57754 19.2051C1.85832 19.9284 2.23417 20.5423 2.84636 21.1536C3.45767 21.7649 4.07076 22.1408 4.79491 22.4225C5.49507 22.6943 6.29386 22.88 7.46494 22.9334C8.63869 22.9867 9.01276 23 12 23C14.9881 23 15.3622 22.9876 16.5351 22.9334C17.7061 22.88 18.5058 22.6943 19.2051 22.4225C19.9283 22.1408 20.5414 21.7649 21.1536 21.1536C21.7649 20.5423 22.1408 19.9284 22.4225 19.2051C22.6943 18.5058 22.8809 17.7061 22.9334 16.5351C22.9867 15.3613 22.9991 14.9872 22.9991 12C22.9991 9.01276 22.9867 8.6378 22.9334 7.46494C22.88 6.29386 22.6943 5.49418 22.4225 4.79491C22.1408 4.07165 21.7649 3.45856 21.1536 2.84637C20.5423 2.23506 19.9284 1.85832 19.206 1.57754C18.5058 1.30565 17.7061 1.11906 16.5359 1.06664C15.3631 1.01333 14.9881 1 12.0009 1C9.01276 1 8.63869 1.01244 7.46494 1.06664Z" fill="#000"/>
</svg>
