<svg width="24" height="24" viewBox="0 0 24 24" fill="none" xmlns="http://www.w3.org/2000/svg">
<path d="M6.65548 8.41219H2.64045C2.46226 8.41219 2.31787 8.55665 2.31787 8.73478V21.6334C2.31787 21.8116 2.46226 21.9559 2.64045 21.9559H6.65548C6.83368 21.9559 6.97806 21.8116 6.97806 21.6334V8.73478C6.97806 8.55665 6.83368 8.41219 6.65548 8.41219Z" fill="#000"/>
<path d="M4.64942 2C3.18852 2 2 3.18723 2 4.64652C2 6.10645 3.18852 7.29413 4.64942 7.29413C6.10916 7.29413 7.29671 6.10639 7.29671 4.64652C7.29677 3.18723 6.10916 2 4.64942 2Z" fill="#000"/>
<path d="M16.868 8.09161C15.2554 8.09161 14.0634 8.78484 13.3403 9.57252V8.73478C13.3403 8.55665 13.1959 8.41219 13.0177 8.41219H9.17265C8.99445 8.41219 8.85006 8.55665 8.85006 8.73478V21.6334C8.85006 21.8115 8.99445 21.9559 9.17265 21.9559H13.1789C13.3571 21.9559 13.5015 21.8115 13.5015 21.6334V15.2515C13.5015 13.101 14.0856 12.2632 15.5847 12.2632C17.2174 12.2632 17.3471 13.6063 17.3471 15.3622V21.6334C17.3471 21.8116 17.4915 21.956 17.6697 21.956H21.6774C21.8556 21.956 22 21.8116 22 21.6334V14.5583C22 11.3606 21.3903 8.09161 16.868 8.09161Z" fill="#000"/>
</svg>
