<svg width="24" height="24" viewBox="0 0 24 24" fill="none" xmlns="http://www.w3.org/2000/svg">
<path d="M21.5467 5.88974C21.2325 6.02909 20.9095 6.1467 20.5794 6.24219C20.9702 5.80025 21.2681 5.28025 21.45 4.71122C21.4908 4.58368 21.4485 4.44406 21.3437 4.36064C21.239 4.27716 21.0935 4.26716 20.9782 4.33548C20.2772 4.75122 19.521 5.05 18.728 5.22471C17.9293 4.44419 16.8444 4 15.7228 4C13.3554 4 11.4293 5.92599 11.4293 8.29334C11.4293 8.47979 11.4411 8.66521 11.4645 8.84805C8.52677 8.59011 5.79561 7.14618 3.92014 4.84561C3.8533 4.76361 3.75033 4.71942 3.64491 4.72787C3.53943 4.73613 3.44465 4.79561 3.39136 4.88703C3.01098 5.53974 2.80988 6.28625 2.80988 7.0458C2.80988 8.08031 3.17924 9.06185 3.83169 9.82882C3.6333 9.76011 3.44078 9.67424 3.25704 9.57224C3.1584 9.51734 3.03801 9.51818 2.94001 9.57437C2.84195 9.63056 2.78046 9.73392 2.77788 9.84688C2.77743 9.86592 2.77743 9.88495 2.77743 9.90424C2.77743 11.4484 3.60852 12.8387 4.87917 13.5964C4.77 13.5855 4.66091 13.5697 4.55252 13.549C4.44078 13.5276 4.32588 13.5668 4.25052 13.652C4.17504 13.7372 4.15007 13.8559 4.18485 13.9643C4.65517 15.4327 5.86607 16.5127 7.32993 16.842C6.11581 17.6025 4.72736 18.0008 3.26982 18.0008C2.96569 18.0008 2.65982 17.9829 2.36046 17.9475C2.21175 17.9298 2.06956 18.0176 2.01892 18.1591C1.96827 18.3005 2.02195 18.4583 2.14846 18.5394C4.02091 19.7399 6.186 20.3745 8.40954 20.3745C12.7808 20.3745 15.5153 18.3132 17.0394 16.584C18.9401 14.4278 20.0301 11.5738 20.0301 8.75392C20.0301 8.63611 20.0283 8.51715 20.0247 8.39857C20.7746 7.8336 21.4202 7.14986 21.9456 6.36399C22.0254 6.24464 22.0167 6.0869 21.9243 5.97703C21.8319 5.86709 21.6781 5.83154 21.5467 5.88974Z" fill="#000"/>
</svg>
