<svg width="24" height="24" viewBox="0 0 24 24" fill="none" xmlns="http://www.w3.org/2000/svg">
<path d="M21.75 3.11812C21.7441 2.5014 21.4953 1.91187 21.0576 1.47735C20.6199 1.04282 20.0286 0.798327 19.4119 0.796875L4.57687 0.75C3.96076 0.750122 3.36983 0.994542 2.93365 1.42967C2.49746 1.8648 2.25161 2.45514 2.25 3.07125V18.375C2.25 19.6547 3.29437 20.625 4.57687 20.625H17.25L16.6406 18.5625L21.75 23.25V3.11812ZM15.218 15.4598C15.218 15.4598 14.8092 14.9728 14.468 14.5542C15.9558 14.1352 16.5234 13.2188 16.5234 13.2188C16.1148 13.4898 15.6769 13.7139 15.218 13.8867C14.6881 14.1067 14.1364 14.27 13.5722 14.3738C12.6 14.5523 11.603 14.5485 10.6322 14.3625C10.0611 14.2564 9.50221 14.0931 8.96391 13.875C8.67914 13.7659 8.40223 13.6373 8.13516 13.4902C8.10094 13.4677 8.06719 13.4564 8.03297 13.4334C8.01 13.4222 7.99875 13.4109 7.98609 13.4109C7.78172 13.2975 7.66828 13.2183 7.66828 13.2183C7.66828 13.2183 8.21297 14.1131 9.65484 14.543C9.31406 14.9733 8.89406 15.4716 8.89406 15.4716C6.38578 15.3923 5.43234 13.762 5.43234 13.762C5.43234 10.1498 7.06687 7.21734 7.06687 7.21734C8.70141 6.00563 10.245 6.03984 10.245 6.03984L10.3584 6.17578C8.31516 6.75328 7.38469 7.64766 7.38469 7.64766C7.38469 7.64766 7.63406 7.51172 8.05406 7.33031C9.26859 6.79828 10.2338 6.66234 10.6322 6.61734C10.6958 6.60413 10.7604 6.59644 10.8253 6.59437C11.5859 6.49568 12.3556 6.48813 13.118 6.57187C14.315 6.70938 15.4748 7.07453 16.5347 7.64766C16.5347 7.64766 15.638 6.79688 13.7081 6.22031L13.867 6.03937C13.867 6.03937 15.4219 6.00516 17.0456 7.21875C17.0456 7.21875 18.6802 10.1512 18.6802 13.7634C18.6802 13.7503 17.7262 15.3806 15.218 15.4598Z" fill="#5865F2"/>
<path d="M9.93984 10.2188C9.29297 10.2188 8.78203 10.7738 8.78203 11.4642C8.78203 12.1547 9.30422 12.7097 9.93984 12.7097C10.5867 12.7097 11.0977 12.1552 11.0977 11.4642C11.1094 10.7723 10.5867 10.2188 9.93984 10.2188Z" fill="#5865F2"/>
<path d="M14.0827 10.2188C13.4358 10.2188 12.9248 10.7738 12.9248 11.4642C12.9248 12.1547 13.447 12.7097 14.0827 12.7097C14.73 12.7097 15.2405 12.1552 15.2405 11.4642C15.2405 10.7733 14.7188 10.2188 14.0827 10.2188Z" fill="#5865F2"/>
</svg>
