<svg width="24" height="24" viewBox="0 0 24 24" fill="none" xmlns="http://www.w3.org/2000/svg">
    <g clip-path="url(#clip0_5144_1350)">
        <path d="M0 12.0603C0 18.0301 4.32 22.9749 10.02 24L10.0909 23.9417C10.0872 23.941 10.0836 23.9403 10.0799 23.9397V15.4372H7.0799V12.0603H10.0799V9.40701C10.0799 6.39193 11.9999 4.70349 14.7599 4.70349C15.5999 4.70349 16.5599 4.82409 17.3999 4.9447V8.02007H15.8399C14.3999 8.02007 14.0399 8.74369 14.0399 9.70852V12.0603H17.2199L16.6799 15.4372H14.0399V23.9397C14.0034 23.9464 13.9668 23.9528 13.9303 23.9591L13.98 24C19.68 22.9749 24 18.0301 24 12.0603C24 5.42714 18.6 0 12 0C5.4 0 0 5.42714 0 12.0603Z" fill="#1777F2"/>
    </g>
    <defs>
        <clipPath id="clip0_5144_1350">
            <rect width="24" height="24" fill="white"/>
        </clipPath>
    </defs>
</svg>
