<svg width="24" height="24" viewBox="0 0 24 24" fill="none" xmlns="http://www.w3.org/2000/svg">
<path fill-rule="evenodd" clip-rule="evenodd" d="M22.987 2.7518L19.2535 21.5032C19.1655 21.9459 18.6683 22.1465 18.3175 21.8803L13.2209 18.0168C12.9115 17.7822 12.4896 17.7946 12.1934 18.0468L9.36764 20.4519C9.03973 20.7319 8.54554 20.5759 8.41997 20.1542L6.45786 13.5654L1.3886 11.59C0.873659 11.3885 0.869259 10.6295 1.38273 10.423L22.1871 2.04291C22.6281 1.86483 23.0831 2.26824 22.987 2.7518ZM8.10391 12.5139L18.0111 6.14273C18.1891 6.0286 18.3723 6.27997 18.2192 6.42801L10.043 14.3637C9.75558 14.643 9.57029 15.017 9.5177 15.4227L9.23931 17.5779C9.20223 17.8655 8.81531 17.894 8.73911 17.6156L7.66796 13.6856C7.54546 13.2374 7.72418 12.7585 8.10391 12.5139Z" fill="#27A7E7"/>
</svg>
