<svg width="24" height="24" viewBox="0 0 24 24" fill="none" xmlns="http://www.w3.org/2000/svg">
<path d="M23.25 5.13258C22.406 5.4993 21.513 5.74091 20.5992 5.84976C21.5595 5.28744 22.2817 4.39409 22.6303 3.33726C21.7224 3.86817 20.7307 4.24067 19.6978 4.43883C19.2629 3.98298 18.7397 3.62034 18.1603 3.37296C17.5808 3.12557 16.9571 2.9986 16.327 2.99976C13.7761 2.99976 11.7117 5.03414 11.7117 7.54195C11.7099 7.89078 11.7499 8.23857 11.8308 8.57789C10.0016 8.49214 8.2104 8.02551 6.57187 7.20785C4.93333 6.3902 3.48351 5.23953 2.31516 3.82945C1.90527 4.52044 1.6885 5.30885 1.6875 6.11226C1.6875 7.68726 2.50922 9.07945 3.75 9.89508C3.01487 9.87763 2.29481 9.68306 1.65094 9.32789V9.38414C1.65094 11.5873 3.24469 13.4201 5.35406 13.8373C4.9574 13.943 4.54864 13.9966 4.13812 13.9966C3.84683 13.9971 3.5562 13.9689 3.27047 13.9123C3.85687 15.717 5.56359 17.0295 7.58531 17.067C5.94252 18.333 3.9256 19.0173 1.85156 19.0123C1.48341 19.0117 1.11561 18.9898 0.75 18.9466C2.85993 20.2939 5.31255 21.0066 7.81594 20.9998C16.3172 20.9998 20.9616 14.0763 20.9616 8.07164C20.9616 7.87476 20.9564 7.67789 20.947 7.4857C21.8485 6.84448 22.6283 6.04763 23.25 5.13258Z" fill="#1DA1F2"/>
</svg>
